<svg width="52" height="53" viewBox="0 0 52 53" fill="none" xmlns="http://www.w3.org/2000/svg">
<path d="M48.2813 0H3.0926C2.34355 0 1.62518 0.307291 1.09553 0.854272C0.565869 1.40125 0.268311 2.14312 0.268311 2.91667V49.5833C0.268311 50.3569 0.565869 51.0988 1.09553 51.6457C1.62518 52.1927 2.34355 52.5 3.0926 52.5H48.2813C49.0303 52.5 49.7487 52.1927 50.2783 51.6457C50.808 51.0988 51.1055 50.3569 51.1055 49.5833V2.91667C51.1055 2.14312 50.808 1.40125 50.2783 0.854272C49.7487 0.307291 49.0303 0 48.2813 0ZM15.3472 44.7329H7.80069V19.6787H15.3472V44.7329ZM11.5739 16.2575C10.4144 16.2575 9.30238 15.7818 8.48247 14.9351C7.66256 14.0884 7.20194 12.94 7.20194 11.7425C7.20194 10.545 7.66256 9.39664 8.48247 8.54991C9.30238 7.70319 10.4144 7.2275 11.5739 7.2275C12.7335 7.2275 13.8455 7.70319 14.6654 8.54991C15.4853 9.39664 15.9459 10.545 15.9459 11.7425C15.9459 12.94 15.4853 14.0884 14.6654 14.9351C13.8455 15.7818 12.7335 16.2575 11.5739 16.2575ZM43.5873 44.7329H36.0492V32.55C36.0492 29.645 35.9984 25.9088 32.1291 25.9088C28.2034 25.9088 27.6074 29.0763 27.6074 32.3458V44.7358H20.0751V19.6817H27.3052V23.1058H27.4097C28.4124 21.1371 30.8751 19.0604 34.5383 19.0604C42.1751 19.0604 43.5845 24.2463 43.5845 30.9954V44.7329H43.5873Z" fill="#061C3B"/>
</svg>
