<svg width="56" height="47" viewBox="0 0 56 47" fill="none" xmlns="http://www.w3.org/2000/svg">
<path d="M50.152 11.6025C50.1888 12.1129 50.1888 12.6204 50.1888 13.1279C50.1888 28.6592 38.7419 46.5558 17.8224 46.5558C11.3773 46.5558 5.38985 44.6279 0.351318 41.2796C1.26639 41.3875 2.14757 41.4254 3.09935 41.4254C8.21977 41.4382 13.1952 39.67 17.2236 36.4058C14.8496 36.3615 12.5482 35.5526 10.6409 34.0921C8.73353 32.6317 7.31541 30.5926 6.58453 28.2596C7.28778 28.3675 7.99385 28.4404 8.73381 28.4404C9.75338 28.4404 10.7786 28.2946 11.7304 28.0408C9.15395 27.5036 6.83723 26.0614 5.17413 23.9595C3.51103 21.8576 2.60424 19.2256 2.60793 16.5113V16.3654C4.12457 17.2375 5.8841 17.7829 7.74814 17.8558C6.18655 16.7842 4.90611 15.3301 4.02103 13.6231C3.13595 11.9162 2.67377 10.0096 2.67571 8.07334C2.67571 5.89167 3.23774 3.89083 4.22342 2.14667C7.08199 5.77798 10.6473 8.74872 14.6884 10.8665C18.7295 12.9843 23.1562 14.2019 27.682 14.4404C27.5069 13.5654 27.3995 12.6583 27.3995 11.7483C27.3988 10.2053 27.6926 8.67725 28.264 7.25153C28.8354 5.82581 29.6734 4.53039 30.7299 3.4393C31.7864 2.34821 33.0408 1.48287 34.4214 0.892729C35.802 0.302591 37.2816 -0.000765273 38.7758 1.44977e-06C42.052 1.44977e-06 45.009 1.4175 47.0877 3.71C49.6345 3.20138 52.0769 2.24123 54.3066 0.872084C53.4576 3.58696 51.6793 5.88905 49.3047 7.34708C51.5636 7.08102 53.7712 6.46757 55.8543 5.52708C54.2985 7.86946 52.3706 9.92351 50.152 11.6025Z" fill="#061C3B"/>
</svg>
