<svg width="51" height="54" viewBox="0 0 51 54" fill="none" xmlns="http://www.w3.org/2000/svg">
<path d="M50.8363 16.2228C50.8078 14.0138 50.4074 11.8267 49.6529 9.75946C48.9987 8.01574 47.9994 6.43212 46.7189 5.1098C45.4385 3.78748 43.905 2.75552 42.2165 2.07988C40.2405 1.31383 38.1529 0.89962 36.0426 0.854875C33.3257 0.729458 32.4643 0.694458 25.5673 0.694458C18.6704 0.694458 17.7864 0.694458 15.0892 0.854875C12.9799 0.899949 10.8933 1.31416 8.91815 2.07988C7.22939 2.75505 5.6957 3.78684 4.4152 5.10922C3.1347 6.4316 2.13559 8.01546 1.4818 9.75946C0.738531 11.7986 0.338307 13.9539 0.298419 16.1324C0.176975 18.9411 0.140259 19.8307 0.140259 26.9532C0.140259 34.0757 0.140259 34.9857 0.298419 37.774C0.340783 39.9557 0.739008 42.1082 1.4818 44.1528C2.13669 45.8963 3.13654 47.4795 4.41747 48.8013C5.69839 50.1231 7.23223 51.1545 8.92098 51.8295C10.8907 52.6263 12.9777 53.0701 15.0921 53.142C17.8118 53.2674 18.6733 53.3053 25.5702 53.3053C32.4671 53.3053 33.3511 53.3053 36.0483 53.142C38.1585 53.099 40.2462 52.6858 42.2222 51.9199C43.9102 51.2434 45.4433 50.2112 46.7237 48.889C48.004 47.5668 49.0035 45.9836 49.6586 44.2403C50.4013 42.1986 50.7996 40.0461 50.8419 37.8615C50.9634 35.0557 51.0001 34.1661 51.0001 27.0407C50.9944 19.9182 50.9944 19.014 50.8363 16.2228ZM25.5504 40.4224C18.3372 40.4224 12.4937 34.3878 12.4937 26.9386C12.4937 19.4895 18.3372 13.4549 25.5504 13.4549C29.0133 13.4549 32.3343 14.8755 34.7829 17.4042C37.2315 19.9329 38.6071 23.3625 38.6071 26.9386C38.6071 30.5147 37.2315 33.9444 34.7829 36.4731C32.3343 39.0018 29.0133 40.4224 25.5504 40.4224ZM39.1268 16.1003C38.7268 16.1007 38.3308 16.0196 37.9612 15.8617C37.5917 15.7039 37.2559 15.4723 36.9731 15.1802C36.6903 14.8882 36.4661 14.5414 36.3132 14.1598C36.1603 13.7782 36.0818 13.3691 36.0822 12.9561C36.0822 12.5434 36.1609 12.1348 36.3138 11.7535C36.4668 11.3722 36.6909 11.0257 36.9735 10.7339C37.2561 10.4421 37.5916 10.2106 37.9608 10.0526C38.33 9.89471 38.7257 9.81342 39.1254 9.81342C39.525 9.81342 39.9207 9.89471 40.2899 10.0526C40.6591 10.2106 40.9946 10.4421 41.2772 10.7339C41.5598 11.0257 41.784 11.3722 41.9369 11.7535C42.0898 12.1348 42.1685 12.5434 42.1685 12.9561C42.1685 14.6945 40.8072 16.1003 39.1268 16.1003Z" fill="#061C3B"/>
<path d="M25.5507 35.6974C30.2348 35.6974 34.032 31.776 34.032 26.9387C34.032 22.1014 30.2348 18.1799 25.5507 18.1799C20.8666 18.1799 17.0693 22.1014 17.0693 26.9387C17.0693 31.776 20.8666 35.6974 25.5507 35.6974Z" fill="#061C3B"/>
</svg>
