<svg width="46" height="45" viewBox="0 0 46 45" fill="none" xmlns="http://www.w3.org/2000/svg">
<path d="M42.821 0H2.82095C2.15791 0 1.52203 0.263392 1.05319 0.732233C0.584345 1.20107 0.320953 1.83696 0.320953 2.5V42.5C0.320953 43.163 0.584345 43.7989 1.05319 44.2678C1.52203 44.7366 2.15791 45 2.82095 45H42.821C43.484 45 44.1199 44.7366 44.5887 44.2678C45.0576 43.7989 45.321 43.163 45.321 42.5V2.5C45.321 1.83696 45.0576 1.20107 44.5887 0.732233C44.1199 0.263392 43.484 0 42.821 0ZM13.6685 38.3425H6.98845V16.8675H13.6685V38.3425ZM10.3285 13.935C9.30206 13.935 8.31772 13.5273 7.59195 12.8015C6.86618 12.0757 6.45845 11.0914 6.45845 10.065C6.45845 9.03861 6.86618 8.05426 7.59195 7.3285C8.31772 6.60273 9.30206 6.195 10.3285 6.195C11.3548 6.195 12.3392 6.60273 13.065 7.3285C13.7907 8.05426 14.1985 9.03861 14.1985 10.065C14.1985 11.0914 13.7907 12.0757 13.065 12.8015C12.3392 13.5273 11.3548 13.935 10.3285 13.935ZM38.666 38.3425H31.9935V27.9C31.9935 25.41 31.9485 22.2075 28.5235 22.2075C25.0485 22.2075 24.521 24.9225 24.521 27.725V38.345H17.8535V16.87H24.2535V19.805H24.346C25.2335 18.1175 27.4135 16.3375 30.656 16.3375C37.416 16.3375 38.6635 20.7825 38.6635 26.5675V38.3425H38.666Z" fill="white"/>
</svg>
