<svg width="45" height="35" viewBox="0 0 45 35" fill="none" xmlns="http://www.w3.org/2000/svg">
<path d="M40.3768 8.72259C40.4066 9.10632 40.4066 9.48785 40.4066 9.86938C40.4066 21.5455 31.1258 35 14.165 35C8.93955 35 4.08508 33.5506 0 31.0334C0.741909 31.1145 1.45634 31.143 2.22802 31.143C6.37949 31.1526 10.4134 29.8233 13.6795 27.3694C11.7547 27.336 9.88886 26.7279 8.34244 25.63C6.79603 24.532 5.64626 22.9991 5.05368 21.2451C5.62385 21.3263 6.19632 21.3811 6.79625 21.3811C7.62289 21.3811 8.4541 21.2715 9.22578 21.0807C7.13689 20.6768 5.25856 19.5926 3.91018 18.0124C2.56179 16.4322 1.82659 14.4536 1.82958 12.4129V12.3033C3.05923 12.9589 4.4858 13.3689 5.9971 13.4238C4.73102 12.6181 3.69288 11.5249 2.97528 10.2417C2.25769 8.95844 1.88297 7.52506 1.88454 6.06942C1.88454 4.42927 2.34022 2.92507 3.13938 1.61383C5.45701 4.3438 8.34763 6.57716 11.624 8.16928C14.9004 9.7614 18.4895 10.6768 22.1588 10.8561C22.0168 10.1983 21.9298 9.51635 21.9298 8.83223C21.9292 7.6722 22.1674 6.52343 22.6307 5.4516C23.094 4.37976 23.7734 3.40588 24.63 2.58561C25.4866 1.76535 26.5036 1.1148 27.6229 0.671141C28.7422 0.227484 29.9419 -0.000575321 31.1533 1.08991e-06C33.8095 1.08991e-06 36.207 1.06566 37.8923 2.78912C39.9572 2.40675 41.9374 1.68493 43.7452 0.65562C43.0569 2.69663 41.6151 4.42731 39.6898 5.52343C41.5212 5.32341 43.3111 4.86223 45 4.15518C43.7386 5.91614 42.1755 7.46035 40.3768 8.72259Z" fill="white"/>
</svg>
