<svg width="46" height="46" viewBox="0 0 46 46" fill="none" xmlns="http://www.w3.org/2000/svg">
<path d="M45.2533 13.9763C45.2281 12.0868 44.8738 10.2162 44.2063 8.44797C43.6274 6.9565 42.7433 5.60197 41.6104 4.47094C40.4774 3.33991 39.1207 2.45724 37.6267 1.87933C35.8783 1.22411 34.0313 0.869819 32.1641 0.831546C29.7602 0.724273 28.998 0.694336 22.8958 0.694336C16.7935 0.694336 16.0113 0.694336 13.6249 0.831546C11.7586 0.8701 9.9124 1.22439 8.1648 1.87933C6.67061 2.45684 5.31362 3.33936 4.18066 4.47045C3.04769 5.60153 2.16369 6.95626 1.58523 8.44797C0.927597 10.1921 0.573484 12.0357 0.538192 13.899C0.43074 16.3014 0.398254 17.0623 0.398254 23.1544C0.398254 29.2466 0.398254 30.0249 0.538192 32.4099C0.575676 34.2759 0.928019 36.1171 1.58523 37.8659C2.16466 39.3571 3.04932 40.7113 4.18266 41.8419C5.31601 42.9725 6.67313 43.8547 8.1673 44.432C9.91011 45.1136 11.7566 45.4932 13.6274 45.5546C16.0338 45.6619 16.796 45.6943 22.8983 45.6943C29.0005 45.6943 29.7827 45.6943 32.1691 45.5546C34.0362 45.5179 35.8834 45.1645 37.6317 44.5093C39.1253 43.9308 40.4817 43.0479 41.6145 41.9169C42.7474 40.786 43.6317 39.4318 44.2113 37.9407C44.8685 36.1944 45.2208 34.3533 45.2583 32.4847C45.3658 30.0848 45.3983 29.3239 45.3983 23.2293C45.3933 17.1371 45.3933 16.3638 45.2533 13.9763ZM22.8808 34.6751C16.4986 34.6751 11.3284 29.5135 11.3284 23.1419C11.3284 16.7704 16.4986 11.6088 22.8808 11.6088C25.9446 11.6088 28.883 12.8239 31.0495 14.9868C33.216 17.1497 34.4331 20.0832 34.4331 23.1419C34.4331 26.2007 33.216 29.1342 31.0495 31.2971C28.883 33.46 25.9446 34.6751 22.8808 34.6751ZM34.8929 13.8715C34.5391 13.8718 34.1886 13.8025 33.8617 13.6675C33.5347 13.5324 33.2376 13.3344 32.9874 13.0846C32.7372 12.8348 32.5388 12.5382 32.4035 12.2117C32.2682 11.8853 32.1988 11.5355 32.1991 11.1822C32.1991 10.8292 32.2688 10.4796 32.4041 10.1535C32.5394 9.82738 32.7377 9.53105 32.9878 9.28144C33.2378 9.03183 33.5346 8.83383 33.8613 8.69874C34.188 8.56365 34.5381 8.49412 34.8917 8.49412C35.2453 8.49412 35.5954 8.56365 35.9221 8.69874C36.2487 8.83383 36.5456 9.03183 36.7956 9.28144C37.0456 9.53105 37.244 9.82738 37.3793 10.1535C37.5146 10.4796 37.5842 10.8292 37.5842 11.1822C37.5842 12.6691 36.3798 13.8715 34.8929 13.8715Z" fill="white"/>
</svg>
