<svg width="41" height="42" viewBox="0 0 41 42" fill="none" xmlns="http://www.w3.org/2000/svg">
<path d="M20.2384 27.72C17.7996 27.72 15.4607 26.7041 13.7362 24.8958C12.0117 23.0875 11.0429 20.6349 11.0429 18.0775V6.38753C11.0174 6.02635 11.0174 5.6637 11.0429 5.30253C11.0552 5.18958 11.0889 5.08034 11.1419 4.98116C11.1949 4.88198 11.2662 4.79484 11.3516 4.72482C11.437 4.65479 11.5349 4.60328 11.6394 4.57327C11.744 4.54326 11.8532 4.53536 11.9608 4.55003C12.1795 4.57642 12.3794 4.69239 12.517 4.87268C12.6545 5.05297 12.7185 5.28296 12.6951 5.51253C12.678 5.80392 12.678 6.09614 12.6951 6.38753V18.0775C12.8221 20.0754 13.6686 21.9479 15.063 23.3158C16.4574 24.6837 18.2955 25.4447 20.205 25.4447C22.1145 25.4447 23.9526 24.6837 25.347 23.3158C26.7414 21.9479 27.5878 20.0754 27.7149 18.0775V6.38753C27.732 6.09614 27.732 5.80392 27.7149 5.51253C27.6884 5.28046 27.7508 5.04684 27.8885 4.86305C28.0262 4.67927 28.2279 4.56037 28.4492 4.53253C28.6705 4.50468 28.8933 4.57016 29.0686 4.71456C29.2439 4.85896 29.3572 5.07046 29.3838 5.30253C29.4092 5.6637 29.4092 6.02635 29.3838 6.38753V18.0775C29.3838 20.6258 28.4219 23.0705 26.7082 24.8773C24.9946 26.6841 22.6685 27.7062 20.2384 27.72Z" fill="white"/>
<path d="M29.5006 17.01C29.3464 17.0063 29.1963 16.9579 29.0667 16.87L28.1655 16.31C27.9752 16.1894 27.8384 15.9943 27.7852 15.7679C27.732 15.5414 27.7668 15.3021 27.8818 15.1025C27.9969 14.903 28.1829 14.7595 28.3988 14.7037C28.6148 14.6479 28.843 14.6844 29.0334 14.805L29.7176 15.2425C34.8744 15.0675 35.8591 8.66253 36.0426 6.28253H4.41746C4.60104 8.68003 5.53561 15.0325 10.7592 15.2425L11.4434 14.805C11.5377 14.7453 11.6422 14.7056 11.7511 14.6882C11.8599 14.6708 11.971 14.6761 12.0779 14.7037C12.1849 14.7313 12.2856 14.7808 12.3743 14.8492C12.463 14.9176 12.538 15.0037 12.5949 15.1025C12.6519 15.2014 12.6898 15.311 12.7064 15.4251C12.7229 15.5393 12.7179 15.6558 12.6916 15.7679C12.6652 15.88 12.6181 15.9856 12.5528 16.0786C12.4876 16.1716 12.4055 16.2503 12.3112 16.31L11.41 16.87C11.2805 16.9579 11.1303 17.0063 10.9761 17.01C4.45084 17.01 2.71521 9.41503 2.71521 5.40753C2.71521 5.17547 2.80312 4.95291 2.95961 4.78881C3.1161 4.62472 3.32834 4.53253 3.54965 4.53253H36.9271C37.1484 4.53253 37.3607 4.62472 37.5172 4.78881C37.6737 4.95291 37.7616 5.17547 37.7616 5.40753C37.7616 9.41503 36.0259 17.01 29.5006 17.01Z" fill="white"/>
<path d="M20.2384 37.4675C20.0171 37.4675 19.8048 37.3753 19.6484 37.2112C19.4919 37.0472 19.404 36.8246 19.404 36.5925V26.845C19.404 26.613 19.4919 26.3904 19.6484 26.2263C19.8048 26.0622 20.0171 25.97 20.2384 25.97C20.4597 25.97 20.6719 26.0622 20.8284 26.2263C20.9849 26.3904 21.0728 26.613 21.0728 26.845V36.5925C21.0728 36.8246 20.9849 37.0472 20.8284 37.2112C20.6719 37.3753 20.4597 37.4675 20.2384 37.4675Z" fill="white"/>
<path d="M29.534 37.4675H12.8453C12.624 37.4675 12.4117 37.3753 12.2552 37.2112C12.0987 37.0472 12.0108 36.8246 12.0108 36.5925C12.0108 36.3605 12.0987 36.1379 12.2552 35.9738C12.4117 35.8097 12.624 35.7175 12.8453 35.7175H29.534C29.7553 35.7175 29.9676 35.8097 30.124 35.9738C30.2805 36.1379 30.3684 36.3605 30.3684 36.5925C30.3684 36.8246 30.2805 37.0472 30.124 37.2112C29.9676 37.3753 29.7553 37.4675 29.534 37.4675Z" fill="white"/>
</svg>
